<?xml version="1.0" standalone="no"?>
<!DOCTYPE svg PUBLIC "-//W3C//DTD SVG 20010904//EN"
 "http://www.w3.org/TR/2001/REC-SVG-20010904/DTD/svg10.dtd">
<svg version="1.0" xmlns="http://www.w3.org/2000/svg"
 width="452.000000pt" height="452.000000pt" viewBox="0 0 452.000000 452.000000"
 preserveAspectRatio="xMidYMid meet">
<metadata>
Created by potrace 1.14, written by Peter Selinger 2001-2017
</metadata>
<g transform="translate(0.000000,452.000000) scale(0.100000,-0.100000)"
fill="#000000" stroke="none">
<path d="M1028 4144 c-165 -30 -299 -102 -429 -233 -83 -84 -102 -109 -147
-201 -94 -190 -87 -80 -87 -1450 0 -1370 -7 -1256 88 -1450 74 -153 204 -283
357 -357 194 -95 80 -88 1450 -88 1143 0 1209 1 1275 19 247 65 445 231 550
459 75 164 70 72 70 1417 0 1370 7 1256 -88 1450 -45 94 -62 116 -151 206 -91
91 -111 106 -206 152 -195 94 -76 86 -1420 89 -985 1 -1198 -1 -1262 -13z
m2368 -175 l44 -11 0 -1698 0 -1699 -52 -11 c-39 -8 -366 -10 -1188 -8 -1029
3 -1140 5 -1190 21 -177 54 -323 174 -397 327 -72 149 -68 69 -68 1370 0 1302
-4 1221 68 1370 86 177 262 306 463 339 79 14 2267 13 2320 0z m381 -173 c132
-124 194 -263 196 -441 l2 -100 -177 -3 -178 -2 0 330 0 331 42 -23 c23 -13
75 -54 115 -92z m203 -1086 l0 -360 -180 0 -180 0 0 360 0 360 180 0 180 0 0
-360z m0 -900 l0 -360 -180 0 -180 0 0 360 0 360 180 0 180 0 0 -360z m-7
-646 c-1 -120 -35 -234 -97 -326 -44 -67 -155 -174 -214 -206 l-42 -23 0 331
0 330 178 -2 177 -3 -2 -101z"/>
<path d="M1889 3428 c-493 -36 -914 -394 -1040 -885 -127 -497 99 -1032 546
-1296 282 -166 631 -205 953 -105 227 69 474 254 611 457 64 93 136 252 167
366 26 93 28 113 28 295 0 182 -2 202 -28 295 -31 114 -103 273 -167 366 -24
35 -84 106 -133 157 -247 256 -571 377 -937 350z m374 -212 c165 -49 306 -133
428 -255 125 -125 214 -278 259 -446 28 -101 38 -304 21 -411 -25 -151 -95
-316 -184 -434 -23 -30 -45 -59 -49 -64 -4 -6 -25 7 -50 30 -63 59 -159 121
-252 165 -369 172 -841 107 -1135 -157 -27 -24 -51 -44 -54 -44 -13 0 -110
145 -146 216 -245 490 -45 1088 444 1332 167 83 263 103 470 98 137 -3 173 -7
248 -30z m-163 -1507 c107 -13 246 -59 330 -109 75 -44 160 -111 160 -125 0
-15 -103 -78 -193 -120 -143 -66 -209 -79 -412 -79 -168 0 -186 2 -268 27 -96
30 -200 79 -285 135 l-54 36 33 29 c133 113 283 181 457 206 83 12 137 12 232
0z"/>
<path d="M1860 2876 c-147 -41 -267 -162 -306 -310 -31 -115 -11 -267 49 -368
31 -54 111 -129 165 -157 179 -91 407 -58 542 78 168 170 174 452 13 631 -84
94 -198 141 -336 139 -45 0 -102 -6 -127 -13z m274 -200 c83 -49 133 -152 123
-257 -13 -145 -101 -235 -242 -247 -173 -13 -295 97 -295 269 0 66 20 129 56
176 52 69 118 95 230 90 67 -3 89 -8 128 -31z"/>
</g>
</svg>
